<svg width="38" height="28" viewBox="0 0 38 28" fill="none" xmlns="http://www.w3.org/2000/svg">
<path d="M36.1875 21.4206H31.7525C31.489 20.3085 30.8579 19.3178 29.9614 18.6089C29.0648 17.9 27.9553 17.5144 26.8124 17.5144C25.6695 17.5144 24.56 17.9 23.6634 18.6089C22.7669 19.3178 22.1358 20.3085 21.8723 21.4206H1.8125C1.5017 21.4206 1.20363 21.5441 0.983859 21.7639C0.76409 21.9836 0.640625 22.2817 0.640625 22.5925C0.640625 22.9033 0.76409 23.2014 0.983859 23.4211C1.20363 23.6409 1.5017 23.7644 1.8125 23.7644H21.8723C22.1358 24.8765 22.7669 25.8672 23.6634 26.5761C24.56 27.285 25.6695 27.6706 26.8124 27.6706C27.9553 27.6706 29.0648 27.285 29.9614 26.5761C30.8579 25.8672 31.489 24.8765 31.7525 23.7644H36.1875C36.4983 23.7644 36.7964 23.6409 37.0161 23.4211C37.2359 23.2014 37.3594 22.9033 37.3594 22.5925C37.3594 22.2817 37.2359 21.9836 37.0161 21.7639C36.7964 21.5441 36.4983 21.4206 36.1875 21.4206ZM26.8125 25.3269C26.2717 25.3269 25.743 25.1665 25.2934 24.866C24.8437 24.5656 24.4932 24.1385 24.2863 23.6389C24.0793 23.1393 24.0252 22.5895 24.1307 22.059C24.2362 21.5286 24.4966 21.0414 24.879 20.659C25.2614 20.2766 25.7486 20.0162 26.2791 19.9107C26.8095 19.8052 27.3593 19.8593 27.8589 20.0663C28.3585 20.2732 28.7856 20.6237 29.0861 21.0734C29.3865 21.523 29.5469 22.0517 29.5469 22.5925C29.546 23.3174 29.2577 24.0125 28.7451 24.5251C28.2325 25.0377 27.5374 25.326 26.8125 25.3269ZM1.8125 6.57668H9.37227C9.63581 7.68881 10.2669 8.67949 11.1634 9.38839C12.06 10.0973 13.1695 10.4829 14.3124 10.4829C15.4553 10.4829 16.5648 10.0973 17.4614 9.38839C18.3579 8.67949 18.989 7.68881 19.2525 6.57668H36.1875C36.4983 6.57668 36.7964 6.45321 37.0161 6.23344C37.2359 6.01368 37.3594 5.7156 37.3594 5.4048C37.3594 5.094 37.2359 4.79593 37.0161 4.57616C36.7964 4.35639 36.4983 4.23293 36.1875 4.23293H19.2525C18.989 3.12079 18.3579 2.13012 17.4614 1.42122C16.5648 0.712314 15.4553 0.32666 14.3124 0.32666C13.1695 0.32666 12.06 0.712314 11.1634 1.42122C10.2669 2.13012 9.63581 3.12079 9.37227 4.23293H1.8125C1.5017 4.23293 1.20363 4.35639 0.983859 4.57616C0.76409 4.79593 0.640625 5.094 0.640625 5.4048C0.640625 5.7156 0.76409 6.01368 0.983859 6.23344C1.20363 6.45321 1.5017 6.57668 1.8125 6.57668ZM14.3125 2.67043C14.8533 2.67043 15.382 2.8308 15.8316 3.13125C16.2813 3.43171 16.6318 3.85876 16.8387 4.3584C17.0457 4.85805 17.0998 5.40784 16.9943 5.93825C16.8888 6.46867 16.6284 6.95589 16.246 7.3383C15.8636 7.72071 15.3764 7.98113 14.8459 8.08664C14.3155 8.19214 13.7657 8.138 13.2661 7.93104C12.7665 7.72408 12.3394 7.37361 12.039 6.92394C11.7385 6.47428 11.5781 5.94561 11.5781 5.4048C11.579 4.67986 11.8673 3.98484 12.3799 3.47222C12.8925 2.95961 13.5876 2.67126 14.3125 2.67043Z" fill="#377DFF"/>
</svg>
