<svg width="46" height="42" viewBox="0 0 46 42" fill="none" xmlns="http://www.w3.org/2000/svg">
<path d="M16.7502 8.50008H8.41683V16.8334H12.5835V12.6667H16.7502V8.50008ZM37.5835 16.8334H33.4168V21.0001H29.2502V25.1667H37.5835V16.8334ZM41.7502 29.3334H4.25016V4.33342H41.7502V29.3334ZM41.7502 0.166748H4.25016C1.93766 0.166748 0.0834961 2.02091 0.0834961 4.33342V29.3334C0.0834961 30.4385 0.522483 31.4983 1.30388 32.2797C2.08529 33.0611 3.14509 33.5001 4.25016 33.5001H18.8335V37.6668H14.6668V41.8334H31.3335V37.6668H27.1668V33.5001H41.7502C42.8552 33.5001 43.915 33.0611 44.6964 32.2797C45.4778 31.4983 45.9168 30.4385 45.9168 29.3334V4.33342C45.9168 3.22835 45.4778 2.16854 44.6964 1.38714C43.915 0.605735 42.8552 0.166748 41.7502 0.166748Z" fill="#377DFF"/>
</svg>
