<svg width="42" height="43" viewBox="0 0 42 43" fill="none" xmlns="http://www.w3.org/2000/svg">
<path d="M22.5 20C22.76 20 23.0125 20.02 23.2625 20.0575C22.2875 20.755 21.405 21.5775 20.6425 22.5H5C4.33696 22.5 3.70107 22.7634 3.23223 23.2322C2.76339 23.7011 2.5 24.337 2.5 25V28.75C2.5 32.2675 6.4475 35 13.75 35C15.1493 35.0094 16.5465 34.8931 17.925 34.6525C18.1325 35.475 18.4175 36.265 18.765 37.02C17.114 37.3499 15.4336 37.5107 13.75 37.5C5.22 37.5 0 33.885 0 28.75V25C0 23.6739 0.526784 22.4021 1.46447 21.4645C2.40215 20.5268 3.67392 20 5 20H22.5Z" fill="#377DFF"/>
<path d="M37.5 11.25C37.5 12.9076 36.8415 14.4973 35.6694 15.6694C34.4973 16.8415 32.9076 17.5 31.25 17.5C29.5924 17.5 28.0027 16.8415 26.8306 15.6694C25.6585 14.4973 25 12.9076 25 11.25C25 9.5924 25.6585 8.00269 26.8306 6.83058C28.0027 5.65848 29.5924 5 31.25 5C32.9076 5 34.4973 5.65848 35.6694 6.83058C36.8415 8.00269 37.5 9.5924 37.5 11.25ZM31.25 7.5C30.2554 7.5 29.3016 7.89509 28.5983 8.59835C27.8951 9.30161 27.5 10.2554 27.5 11.25C27.5 12.2446 27.8951 13.1984 28.5983 13.9017C29.3016 14.6049 30.2554 15 31.25 15C32.2446 15 33.1984 14.6049 33.9016 13.9017C34.6049 13.1984 35 12.2446 35 11.25C35 10.2554 34.6049 9.30161 33.9016 8.59835C33.1984 7.89509 32.2446 7.5 31.25 7.5Z" fill="#377DFF"/>
<path d="M13.75 0C14.8991 -1.71224e-08 16.0369 0.226325 17.0985 0.666054C18.1601 1.10578 19.1247 1.7503 19.9372 2.56282C20.7497 3.37533 21.3942 4.33992 21.8339 5.40152C22.2737 6.46312 22.5 7.60093 22.5 8.75C22.5 9.89907 22.2737 11.0369 21.8339 12.0985C21.3942 13.1601 20.7497 14.1247 19.9372 14.9372C19.1247 15.7497 18.1601 16.3942 17.0985 16.8339C16.0369 17.2737 14.8991 17.5 13.75 17.5C11.4294 17.5 9.20376 16.5781 7.56282 14.9372C5.92187 13.2962 5 11.0706 5 8.75C5 6.42936 5.92187 4.20376 7.56282 2.56282C9.20376 0.921872 11.4294 3.45803e-08 13.75 0ZM13.75 2.5C12.0924 2.5 10.5027 3.15848 9.33058 4.33058C8.15848 5.50269 7.5 7.0924 7.5 8.75C7.5 10.4076 8.15848 11.9973 9.33058 13.1694C10.5027 14.3415 12.0924 15 13.75 15C15.4076 15 16.9973 14.3415 18.1694 13.1694C19.3415 11.9973 20 10.4076 20 8.75C20 7.0924 19.3415 5.50269 18.1694 4.33058C16.9973 3.15848 15.4076 2.5 13.75 2.5Z" fill="#377DFF"/>
<path d="M21.2599 26.8001L22.1549 27.6751C22.6311 28.1407 23.0095 28.6968 23.2678 29.3108C23.5262 29.9247 23.6592 30.584 23.6592 31.2501C23.6592 31.9161 23.5262 32.5755 23.2678 33.1894C23.0095 33.8033 22.6311 34.3594 22.1549 34.8251L21.2599 35.7001C21.5849 36.4776 21.9899 37.2101 22.4674 37.8851L23.4549 37.5876C24.1073 37.3921 24.7927 37.332 25.4692 37.4109C26.1457 37.4897 26.7989 37.706 27.3888 38.0464C27.9787 38.3867 28.4929 38.844 28.8997 39.3902C29.3066 39.9364 29.5976 40.5599 29.7549 41.2226L30.0449 42.4326C30.8448 42.5237 31.6524 42.5237 32.4524 42.4326L32.7399 41.2226C32.8971 40.5599 33.1881 39.9364 33.595 39.3902C34.0018 38.844 34.516 38.3867 35.1059 38.0464C35.6958 37.706 36.349 37.4897 37.0255 37.4109C37.702 37.332 38.3875 37.3921 39.0399 37.5876L40.0299 37.8851C40.5049 37.2101 40.9124 36.4776 41.2374 35.7001L40.3424 34.8251C39.8661 34.3594 39.4877 33.8033 39.2294 33.1894C38.9711 32.5755 38.838 31.9161 38.838 31.2501C38.838 30.584 38.9711 29.9247 39.2294 29.3108C39.4877 28.6968 39.8661 28.1407 40.3424 27.6751L41.2374 26.8001C40.9165 26.0295 40.5115 25.2968 40.0299 24.6151L39.0399 24.9126C38.3875 25.1081 37.702 25.1682 37.0255 25.0893C36.349 25.0104 35.6958 24.7941 35.1059 24.4538C34.516 24.1134 34.0018 23.6561 33.595 23.1099C33.1881 22.5638 32.8971 21.9402 32.7399 21.2776L32.4524 20.0676C31.6524 19.9765 30.8448 19.9765 30.0449 20.0676L29.7574 21.2776C29.6001 21.9402 29.3091 22.5638 28.9022 23.1099C28.4954 23.6561 27.9812 24.1134 27.3913 24.4538C26.8014 24.7941 26.1482 25.0104 25.4717 25.0893C24.7952 25.1682 24.1098 25.1081 23.4574 24.9126L22.4674 24.6151C21.9899 25.2901 21.5824 26.0226 21.2599 26.8001ZM31.2474 33.7501C30.5843 33.7501 29.9484 33.4867 29.4796 33.0178C29.0108 32.549 28.7474 31.9131 28.7474 31.2501C28.7474 30.587 29.0108 29.9512 29.4796 29.4823C29.9484 29.0135 30.5843 28.7501 31.2474 28.7501C31.9104 28.7501 32.5463 29.0135 33.0151 29.4823C33.484 29.9512 33.7474 30.587 33.7474 31.2501C33.7474 31.9131 33.484 32.549 33.0151 33.0178C32.5463 33.4867 31.9104 33.7501 31.2474 33.7501Z" fill="#377DFF"/>
</svg>
