<svg width="50" height="50" viewBox="0 0 50 50" fill="none" xmlns="http://www.w3.org/2000/svg">
<path fill-rule="evenodd" clip-rule="evenodd" d="M25 10.9375C25.4144 10.9375 25.8118 11.1021 26.1049 11.3951C26.3979 11.6882 26.5625 12.0856 26.5625 12.5V25C26.5625 25.4144 26.3979 25.8118 26.1049 26.1049C25.8118 26.3979 25.4144 26.5625 25 26.5625H12.5C12.0856 26.5625 11.6882 26.3979 11.3951 26.1049C11.1021 25.8118 10.9375 25.4144 10.9375 25C10.9375 24.5856 11.1021 24.1882 11.3951 23.8951C11.6882 23.6021 12.0856 23.4375 12.5 23.4375H23.4375V12.5C23.4375 12.0856 23.6021 11.6882 23.8951 11.3951C24.1882 11.1021 24.5856 10.9375 25 10.9375Z" fill="#377DFF"/>
<path fill-rule="evenodd" clip-rule="evenodd" d="M23.4375 25C23.4375 24.5856 23.6021 24.1882 23.8951 23.8951C24.1882 23.6021 24.5856 23.4375 25 23.4375H37.5C37.9144 23.4375 38.3118 23.6021 38.6049 23.8951C38.8979 24.1882 39.0625 24.5856 39.0625 25C39.0625 25.4144 38.8979 25.8118 38.6049 26.1049C38.3118 26.3979 37.9144 26.5625 37.5 26.5625H26.5625V37.5C26.5625 37.9144 26.3979 38.3118 26.1049 38.6049C25.8118 38.8979 25.4144 39.0625 25 39.0625C24.5856 39.0625 24.1882 38.8979 23.8951 38.6049C23.6021 38.3118 23.4375 37.9144 23.4375 37.5V25Z" fill="#377DFF"/>
</svg>
